<svg width="32" height="32" viewBox="0 0 32 32" fill="none" xmlns="http://www.w3.org/2000/svg">
<path d="M9.29217 3.29196C9.19904 3.38485 9.12515 3.4952 9.07474 3.61669C9.02433 3.73818 8.99838 3.86842 8.99838 3.99996C8.99838 4.13149 9.02433 4.26173 9.07474 4.38322C9.12515 4.50471 9.19904 4.61507 9.29217 4.70796L20.5862 16L9.29217 27.292C9.10439 27.4797 8.9989 27.7344 8.9989 28C8.9989 28.2655 9.10439 28.5202 9.29217 28.708C9.47994 28.8957 9.73461 29.0012 10.0002 29.0012C10.2657 29.0012 10.5204 28.8957 10.7082 28.708L22.7082 16.708C22.8013 16.6151 22.8752 16.5047 22.9256 16.3832C22.976 16.2617 23.002 16.1315 23.002 16C23.002 15.8684 22.976 15.7382 22.9256 15.6167C22.8752 15.4952 22.8013 15.3848 22.7082 15.292L10.7082 3.29196C10.6153 3.19883 10.5049 3.12494 10.3834 3.07453C10.2619 3.02412 10.1317 2.99817 10.0002 2.99817C9.86863 2.99817 9.73839 3.02412 9.6169 3.07453C9.49541 3.12494 9.38506 3.19883 9.29217 3.29196V3.29196Z" fill="#393939"/>
</svg>
