<svg width="32" height="32" viewBox="0 0 32 32" fill="none" xmlns="http://www.w3.org/2000/svg">
<path d="M9.29217 3.29208C9.19904 3.38497 9.12515 3.49532 9.07474 3.61681C9.02433 3.7383 8.99838 3.86854 8.99838 4.00008C8.99838 4.13161 9.02433 4.26186 9.07474 4.38335C9.12515 4.50484 9.19904 4.61519 9.29217 4.70808L20.5862 16.0001L9.29217 27.2921C9.10439 27.4799 8.9989 27.7345 8.9989 28.0001C8.9989 28.2656 9.10439 28.5203 9.29217 28.7081C9.47994 28.8959 9.73461 29.0013 10.0002 29.0013C10.2657 29.0013 10.5204 28.8959 10.7082 28.7081L22.7082 16.7081C22.8013 16.6152 22.8752 16.5048 22.9256 16.3833C22.976 16.2619 23.002 16.1316 23.002 16.0001C23.002 15.8685 22.976 15.7383 22.9256 15.6168C22.8752 15.4953 22.8013 15.385 22.7082 15.2921L10.7082 3.29208C10.6153 3.19895 10.5049 3.12507 10.3834 3.07465C10.2619 3.02424 10.1317 2.99829 10.0002 2.99829C9.86863 2.99829 9.73839 3.02424 9.6169 3.07465C9.49541 3.12507 9.38506 3.19895 9.29217 3.29208V3.29208Z" fill="#393939"/>
</svg>
