<svg width="69" height="76" viewBox="0 0 69 76" fill="none" xmlns="http://www.w3.org/2000/svg">
<g filter="url(#filter0_d_425_1143)">
<path d="M54.6767 32.8784C55.1368 33.1405 55.5192 33.5197 55.7852 33.9775C56.0513 34.4353 56.1914 34.9554 56.1914 35.4849C56.1914 36.0143 56.0513 36.5344 55.7852 36.9922C55.5192 37.45 55.1368 37.8292 54.6767 38.0914L13.7357 61.4274C13.2795 61.6875 12.7629 61.8233 12.2376 61.8212C11.7124 61.8191 11.1969 61.6791 10.7428 61.4153C10.2886 61.1515 9.91169 60.773 9.64967 60.3178C9.38765 59.8626 9.24974 59.3466 9.24972 58.8214V12.1474C9.24974 11.6221 9.38765 11.1061 9.64967 10.6509C9.91169 10.1957 10.2886 9.81723 10.7428 9.5534C11.1969 9.28957 11.7124 9.1496 12.2376 9.14749C12.7629 9.14537 13.2795 9.28119 13.7357 9.54135L54.6767 32.8784Z" fill="white"/>
</g>
<defs>
<filter id="filter0_d_425_1143" x="3.25" y="6.14746" width="58.9414" height="64.6738" filterUnits="userSpaceOnUse" color-interpolation-filters="sRGB">
<feFlood flood-opacity="0" result="BackgroundImageFix"/>
<feColorMatrix in="SourceAlpha" type="matrix" values="0 0 0 0 0 0 0 0 0 0 0 0 0 0 0 0 0 0 127 0" result="hardAlpha"/>
<feOffset dy="3"/>
<feGaussianBlur stdDeviation="3"/>
<feColorMatrix type="matrix" values="0 0 0 0 0 0 0 0 0 0 0 0 0 0 0 0 0 0 0.161 0"/>
<feBlend mode="normal" in2="BackgroundImageFix" result="effect1_dropShadow_425_1143"/>
<feBlend mode="normal" in="SourceGraphic" in2="effect1_dropShadow_425_1143" result="shape"/>
</filter>
</defs>
</svg>
